<mxfile host="app.diagrams.net" modified="2023-07-17T07:47:35.283Z" agent="Mozilla/5.0 (X11; Linux x86_64; rv:109.0) Gecko/20100101 Firefox/115.0" etag="fZPFdxEsHWj03xYKjr6m" version="21.6.2" type="device">
  <diagram name="Page-1" id="dipBMf6LNMbWlEPwKzFn">
    <mxGraphModel dx="1730" dy="484" grid="1" gridSize="10" guides="1" tooltips="1" connect="1" arrows="1" fold="1" page="1" pageScale="1" pageWidth="850" pageHeight="1100" math="0" shadow="0">
      <root>
        <mxCell id="0" />
        <mxCell id="1" parent="0" />
        <mxCell id="DhBAYLMn11E9w37pAn62-1" value="&lt;div style=&quot;font-size: 21px;&quot;&gt;&lt;font face=&quot;Georgia&quot;&gt;&lt;b&gt;&lt;font style=&quot;font-size: 21px;&quot;&gt;Project &lt;/font&gt;&lt;/b&gt;&lt;/font&gt;&lt;b&gt;&lt;font style=&quot;font-size: 21px;&quot; face=&quot;Georgia&quot;&gt;CodeName: Apol&lt;/font&gt;&lt;font face=&quot;Georgia&quot;&gt;lo&lt;/font&gt;&lt;br&gt;&lt;/b&gt;&lt;/div&gt;" style="text;html=1;strokeColor=none;fillColor=none;align=center;verticalAlign=middle;whiteSpace=wrap;rounded=0;fontColor=#B5739D;" parent="1" vertex="1">
          <mxGeometry x="305" y="100" width="240" height="30" as="geometry" />
        </mxCell>
        <mxCell id="DhBAYLMn11E9w37pAn62-6" value="&lt;div&gt;(God of Song)&lt;/div&gt;" style="text;html=1;align=center;verticalAlign=middle;whiteSpace=wrap;rounded=0;rotation=25;fontColor=#FFB570;" parent="1" vertex="1">
          <mxGeometry x="470" y="120" width="60" height="30" as="geometry" />
        </mxCell>
        <mxCell id="DhBAYLMn11E9w37pAn62-11" value="" style="rounded=0;whiteSpace=wrap;html=1;fillColor=#76608a;strokeColor=#432D57;fontColor=#ffffff;" parent="1" vertex="1">
          <mxGeometry x="165" y="180" width="520" height="340" as="geometry" />
        </mxCell>
        <mxCell id="DhBAYLMn11E9w37pAn62-13" value="&lt;h1 align=&quot;center&quot;&gt;Project Description&lt;/h1&gt;&lt;div&gt;&lt;div class=&quot;flex flex-grow flex-col gap-3&quot;&gt;&lt;div class=&quot;min-h-[20px] flex items-start overflow-x-auto whitespace-pre-wrap break-words flex-col gap-4&quot;&gt;&lt;div class=&quot;markdown prose w-full break-words dark:prose-invert light&quot;&gt;&lt;p&gt;This project aims to create a feature-rich music streaming application that serves as a Spotify clone, providing users with a wide range of functionalities. The application will enable users to:&lt;/p&gt;&lt;div class=&quot;flex flex-grow flex-col gap-3&quot;&gt;&lt;div class=&quot;min-h-[20px] flex items-start overflow-x-auto whitespace-pre-wrap break-words flex-col gap-4&quot;&gt;&lt;div class=&quot;markdown prose w-full break-words dark:prose-invert light&quot;&gt;&lt;ul&gt;&lt;li&gt;Search for songs&lt;/li&gt;&lt;li&gt;Play songs from a comprehensive song list&lt;/li&gt;&lt;li&gt;Download Songs &lt;br&gt;&lt;/li&gt;&lt;li&gt;Create, edit, and play playlists&lt;/li&gt;&lt;li&gt;Shuffle play&lt;/li&gt;&lt;li&gt;Skip songs&lt;/li&gt;&lt;/ul&gt;&lt;/div&gt;&lt;/div&gt;&lt;/div&gt;&lt;p&gt;To source the music, the application will directly download songs from YouTube and store them as MP3 files on the user&#39;s device, ensuring a seamless listening experience.&lt;/p&gt;&lt;p&gt;While an account system is not currently required, it may be implemented if we have time. The initial release will be a desktop application, with potential plans for future expansion to the Android platform.&lt;/p&gt;&lt;/div&gt;&lt;/div&gt;&lt;/div&gt;&lt;/div&gt;" style="text;html=1;strokeColor=#9673a6;fillColor=#e1d5e7;spacing=5;spacingTop=-20;whiteSpace=wrap;overflow=hidden;rounded=0;" parent="1" vertex="1">
          <mxGeometry x="175" y="190" width="500" height="320" as="geometry" />
        </mxCell>
        <mxCell id="wTtVLi6gAMGHEbQHU_Zb-2" value="&lt;div align=&quot;center&quot;&gt;Various Functions&lt;br&gt;&lt;/div&gt;" style="text;html=1;strokeColor=#9673a6;fillColor=#e1d5e7;align=center;verticalAlign=middle;whiteSpace=wrap;rounded=0;fontSize=16;" parent="1" vertex="1">
          <mxGeometry x="345" y="640" width="160" height="80" as="geometry" />
        </mxCell>
        <mxCell id="wTtVLi6gAMGHEbQHU_Zb-7" style="edgeStyle=none;curved=1;rounded=0;orthogonalLoop=1;jettySize=auto;html=1;fontSize=12;startSize=8;endSize=8;" parent="1" source="wTtVLi6gAMGHEbQHU_Zb-4" target="wTtVLi6gAMGHEbQHU_Zb-8" edge="1">
          <mxGeometry relative="1" as="geometry">
            <mxPoint x="-80" y="870" as="targetPoint" />
            <Array as="points">
              <mxPoint x="-220" y="800" />
            </Array>
          </mxGeometry>
        </mxCell>
        <mxCell id="wTtVLi6gAMGHEbQHU_Zb-4" value="&lt;div style=&quot;font-size: 15px;&quot; align=&quot;center&quot;&gt;Download Function&lt;br&gt;&lt;/div&gt;" style="text;html=1;strokeColor=#6c8ebf;fillColor=#dae8fc;align=center;verticalAlign=middle;whiteSpace=wrap;rounded=0;fontSize=16;" parent="1" vertex="1">
          <mxGeometry x="-130" y="770" width="100" height="50" as="geometry" />
        </mxCell>
        <mxCell id="wTtVLi6gAMGHEbQHU_Zb-11" style="edgeStyle=none;curved=1;rounded=0;orthogonalLoop=1;jettySize=auto;html=1;fontSize=12;startSize=8;endSize=8;" parent="1" source="wTtVLi6gAMGHEbQHU_Zb-6" target="wTtVLi6gAMGHEbQHU_Zb-12" edge="1">
          <mxGeometry relative="1" as="geometry">
            <mxPoint x="125" y="890" as="targetPoint" />
          </mxGeometry>
        </mxCell>
        <mxCell id="wTtVLi6gAMGHEbQHU_Zb-6" value="&lt;font style=&quot;font-size: 15px;&quot;&gt;Search function&lt;/font&gt;" style="text;html=1;strokeColor=#6c8ebf;fillColor=#dae8fc;align=center;verticalAlign=middle;whiteSpace=wrap;rounded=0;fontSize=16;" parent="1" vertex="1">
          <mxGeometry x="75" y="770" width="100" height="50" as="geometry" />
        </mxCell>
        <mxCell id="wTtVLi6gAMGHEbQHU_Zb-10" style="edgeStyle=none;curved=1;rounded=0;orthogonalLoop=1;jettySize=auto;html=1;fontSize=12;startSize=8;endSize=8;entryX=0;entryY=0.5;entryDx=0;entryDy=0;" parent="1" source="wTtVLi6gAMGHEbQHU_Zb-8" target="wTtVLi6gAMGHEbQHU_Zb-6" edge="1">
          <mxGeometry relative="1" as="geometry">
            <mxPoint x="110" y="790" as="targetPoint" />
          </mxGeometry>
        </mxCell>
        <mxCell id="wTtVLi6gAMGHEbQHU_Zb-8" value="&lt;font style=&quot;font-size: 12px;&quot;&gt;Ask User for song name&lt;/font&gt;" style="shape=parallelogram;perimeter=parallelogramPerimeter;whiteSpace=wrap;html=1;fixedSize=1;fontSize=16;fillColor=#d5e8d4;strokeColor=#82b366;" parent="1" vertex="1">
          <mxGeometry x="-150" y="870" width="130" height="60" as="geometry" />
        </mxCell>
        <mxCell id="wTtVLi6gAMGHEbQHU_Zb-15" style="edgeStyle=none;curved=1;rounded=0;orthogonalLoop=1;jettySize=auto;html=1;entryX=0.16;entryY=0.55;entryDx=0;entryDy=0;entryPerimeter=0;fontSize=12;startSize=8;endSize=8;" parent="1" source="wTtVLi6gAMGHEbQHU_Zb-12" target="wTtVLi6gAMGHEbQHU_Zb-13" edge="1">
          <mxGeometry relative="1" as="geometry" />
        </mxCell>
        <mxCell id="wTtVLi6gAMGHEbQHU_Zb-12" value="&lt;div style=&quot;font-size: 12px;&quot;&gt;&lt;font style=&quot;font-size: 12px;&quot;&gt;Contact music API&amp;nbsp;&lt;/font&gt;&lt;/div&gt;&lt;div style=&quot;font-size: 12px;&quot;&gt;&lt;font style=&quot;font-size: 12px;&quot;&gt;(Youtube music?)&lt;/font&gt;&lt;/div&gt;" style="rounded=0;whiteSpace=wrap;html=1;fontSize=16;fillColor=#f8cecc;strokeColor=#b85450;" parent="1" vertex="1">
          <mxGeometry x="52.5" y="860" width="145" height="90" as="geometry" />
        </mxCell>
        <mxCell id="wTtVLi6gAMGHEbQHU_Zb-13" value="" style="ellipse;shape=cloud;whiteSpace=wrap;html=1;fontSize=16;fillColor=#f5f5f5;fontColor=#333333;strokeColor=#666666;" parent="1" vertex="1">
          <mxGeometry x="225" y="780" width="195" height="140" as="geometry" />
        </mxCell>
        <mxCell id="wTtVLi6gAMGHEbQHU_Zb-16" style="edgeStyle=none;curved=1;rounded=0;orthogonalLoop=1;jettySize=auto;html=1;fontSize=12;startSize=8;endSize=8;exitX=0.31;exitY=0.8;exitDx=0;exitDy=0;exitPerimeter=0;" parent="1" source="wTtVLi6gAMGHEbQHU_Zb-13" target="wTtVLi6gAMGHEbQHU_Zb-17" edge="1">
          <mxGeometry relative="1" as="geometry">
            <mxPoint x="-20" y="1020" as="targetPoint" />
            <Array as="points">
              <mxPoint x="180" y="1000" />
            </Array>
          </mxGeometry>
        </mxCell>
        <mxCell id="wTtVLi6gAMGHEbQHU_Zb-14" value="&lt;font style=&quot;font-size: 12px;&quot;&gt;Youtube Music returns song name, cover art, artist name&lt;/font&gt;" style="text;html=1;strokeColor=none;fillColor=none;align=center;verticalAlign=middle;whiteSpace=wrap;rounded=0;fontSize=16;" parent="1" vertex="1">
          <mxGeometry x="260" y="830" width="140" height="60" as="geometry" />
        </mxCell>
        <mxCell id="wTtVLi6gAMGHEbQHU_Zb-21" style="edgeStyle=none;curved=1;rounded=0;orthogonalLoop=1;jettySize=auto;html=1;fontSize=12;startSize=8;endSize=8;" parent="1" source="wTtVLi6gAMGHEbQHU_Zb-17" target="wTtVLi6gAMGHEbQHU_Zb-23" edge="1">
          <mxGeometry relative="1" as="geometry">
            <mxPoint x="-90" y="1200" as="targetPoint" />
          </mxGeometry>
        </mxCell>
        <mxCell id="rDYrTtggcFu_421azMsE-1" value="if correct song" style="edgeLabel;html=1;align=center;verticalAlign=middle;resizable=0;points=[];fontSize=16;" vertex="1" connectable="0" parent="wTtVLi6gAMGHEbQHU_Zb-21">
          <mxGeometry x="0.0717" y="2" relative="1" as="geometry">
            <mxPoint as="offset" />
          </mxGeometry>
        </mxCell>
        <mxCell id="wTtVLi6gAMGHEbQHU_Zb-17" value="&lt;font style=&quot;font-size: 12px;&quot;&gt;Display song to user, ask for confirmation&lt;/font&gt;" style="shape=parallelogram;perimeter=parallelogramPerimeter;whiteSpace=wrap;html=1;fixedSize=1;fontSize=16;fillColor=#d5e8d4;strokeColor=#82b366;" parent="1" vertex="1">
          <mxGeometry x="-180" y="1010" width="180" height="90" as="geometry" />
        </mxCell>
        <mxCell id="wTtVLi6gAMGHEbQHU_Zb-24" style="edgeStyle=none;curved=1;rounded=0;orthogonalLoop=1;jettySize=auto;html=1;fontSize=12;startSize=8;endSize=8;entryX=0.875;entryY=0.5;entryDx=0;entryDy=0;entryPerimeter=0;exitX=0;exitY=0.5;exitDx=0;exitDy=0;" parent="1" source="wTtVLi6gAMGHEbQHU_Zb-23" target="wTtVLi6gAMGHEbQHU_Zb-25" edge="1">
          <mxGeometry relative="1" as="geometry">
            <mxPoint x="-330.0000000000002" y="1200" as="targetPoint" />
            <mxPoint x="-180" y="1220" as="sourcePoint" />
          </mxGeometry>
        </mxCell>
        <mxCell id="wTtVLi6gAMGHEbQHU_Zb-31" style="edgeStyle=none;curved=1;rounded=0;orthogonalLoop=1;jettySize=auto;html=1;fontSize=12;startSize=8;endSize=8;entryX=0.16;entryY=0.55;entryDx=0;entryDy=0;entryPerimeter=0;" parent="1" source="wTtVLi6gAMGHEbQHU_Zb-23" target="wTtVLi6gAMGHEbQHU_Zb-32" edge="1">
          <mxGeometry relative="1" as="geometry">
            <mxPoint x="140" y="1260" as="targetPoint" />
          </mxGeometry>
        </mxCell>
        <mxCell id="wTtVLi6gAMGHEbQHU_Zb-23" value="Send name + &quot;lyric&quot; tag, with audio only to pytube" style="rounded=0;whiteSpace=wrap;html=1;fontSize=16;fillColor=#f8cecc;strokeColor=#b85450;" parent="1" vertex="1">
          <mxGeometry x="-190" y="1200" width="200" height="60" as="geometry" />
        </mxCell>
        <mxCell id="wTtVLi6gAMGHEbQHU_Zb-42" style="edgeStyle=none;curved=1;rounded=0;orthogonalLoop=1;jettySize=auto;html=1;entryX=0;entryY=0;entryDx=0;entryDy=15;entryPerimeter=0;fontSize=12;startSize=8;endSize=8;exitX=0.55;exitY=0.95;exitDx=0;exitDy=0;exitPerimeter=0;" parent="1" source="wTtVLi6gAMGHEbQHU_Zb-25" target="wTtVLi6gAMGHEbQHU_Zb-36" edge="1">
          <mxGeometry relative="1" as="geometry" />
        </mxCell>
        <mxCell id="wTtVLi6gAMGHEbQHU_Zb-25" value="" style="ellipse;shape=cloud;whiteSpace=wrap;html=1;fontSize=16;fillColor=#f5f5f5;fontColor=#333333;strokeColor=#666666;" parent="1" vertex="1">
          <mxGeometry x="-440" y="1155" width="180" height="150" as="geometry" />
        </mxCell>
        <mxCell id="wTtVLi6gAMGHEbQHU_Zb-28" value="&lt;div style=&quot;font-size: 12px;&quot;&gt;&lt;font style=&quot;font-size: 12px;&quot;&gt;Pytube &lt;br&gt;&lt;/font&gt;&lt;/div&gt;&lt;div style=&quot;font-size: 12px;&quot;&gt;&lt;font style=&quot;font-size: 12px;&quot;&gt;Downloads audio only version&lt;font style=&quot;font-size: 12px;&quot;&gt;&lt;br&gt;&lt;/font&gt;&lt;/font&gt;&lt;/div&gt;" style="text;html=1;strokeColor=none;fillColor=none;align=center;verticalAlign=middle;whiteSpace=wrap;rounded=0;fontSize=16;" parent="1" vertex="1">
          <mxGeometry x="-395" y="1195" width="90" height="70" as="geometry" />
        </mxCell>
        <mxCell id="wTtVLi6gAMGHEbQHU_Zb-39" style="edgeStyle=none;curved=1;rounded=0;orthogonalLoop=1;jettySize=auto;html=1;fontSize=12;startSize=8;endSize=8;" parent="1" source="wTtVLi6gAMGHEbQHU_Zb-29" edge="1">
          <mxGeometry relative="1" as="geometry">
            <mxPoint x="120" y="1445" as="targetPoint" />
          </mxGeometry>
        </mxCell>
        <mxCell id="wTtVLi6gAMGHEbQHU_Zb-29" value="Save info(name, artist, image location, song location) to data base" style="shape=cylinder3;whiteSpace=wrap;html=1;boundedLbl=1;backgroundOutline=1;size=15;fontSize=16;fillColor=#fff2cc;strokeColor=#d6b656;" parent="1" vertex="1">
          <mxGeometry x="125" y="1375" width="130" height="140" as="geometry" />
        </mxCell>
        <mxCell id="wTtVLi6gAMGHEbQHU_Zb-41" style="edgeStyle=none;curved=1;rounded=0;orthogonalLoop=1;jettySize=auto;html=1;entryX=1;entryY=0;entryDx=0;entryDy=15;entryPerimeter=0;fontSize=12;startSize=8;endSize=8;exitX=0.55;exitY=0.95;exitDx=0;exitDy=0;exitPerimeter=0;" parent="1" source="wTtVLi6gAMGHEbQHU_Zb-32" target="wTtVLi6gAMGHEbQHU_Zb-36" edge="1">
          <mxGeometry relative="1" as="geometry" />
        </mxCell>
        <mxCell id="wTtVLi6gAMGHEbQHU_Zb-32" value="&lt;div&gt;Get Song&amp;nbsp;&lt;/div&gt;&lt;div&gt;cover art&lt;/div&gt;" style="ellipse;shape=cloud;whiteSpace=wrap;html=1;fontSize=16;fillColor=#f5f5f5;fontColor=#333333;strokeColor=#666666;" parent="1" vertex="1">
          <mxGeometry x="40" y="1170" width="120" height="110" as="geometry" />
        </mxCell>
        <mxCell id="wTtVLi6gAMGHEbQHU_Zb-35" value="Records Database" style="text;html=1;strokeColor=none;fillColor=none;align=center;verticalAlign=middle;whiteSpace=wrap;rounded=0;fontSize=16;" parent="1" vertex="1">
          <mxGeometry x="160" y="1335" width="60" height="30" as="geometry" />
        </mxCell>
        <mxCell id="wTtVLi6gAMGHEbQHU_Zb-43" style="edgeStyle=none;curved=1;rounded=0;orthogonalLoop=1;jettySize=auto;html=1;fontSize=12;startSize=8;endSize=8;" parent="1" source="wTtVLi6gAMGHEbQHU_Zb-36" target="wTtVLi6gAMGHEbQHU_Zb-29" edge="1">
          <mxGeometry relative="1" as="geometry" />
        </mxCell>
        <mxCell id="wTtVLi6gAMGHEbQHU_Zb-36" value="Save song and image to a folder in folder of files" style="shape=cylinder3;whiteSpace=wrap;html=1;boundedLbl=1;backgroundOutline=1;size=15;fontSize=16;fillColor=#fff2cc;strokeColor=#d6b656;" parent="1" vertex="1">
          <mxGeometry x="-140" y="1375" width="130" height="140" as="geometry" />
        </mxCell>
        <mxCell id="wTtVLi6gAMGHEbQHU_Zb-38" value="&lt;div&gt;Files&lt;/div&gt;&lt;div&gt;Folder&lt;br&gt;&lt;/div&gt;" style="text;html=1;strokeColor=none;fillColor=none;align=center;verticalAlign=middle;whiteSpace=wrap;rounded=0;fontSize=16;" parent="1" vertex="1">
          <mxGeometry x="-105" y="1335" width="60" height="30" as="geometry" />
        </mxCell>
        <mxCell id="wTtVLi6gAMGHEbQHU_Zb-47" value="Take user back to song list page" style="shape=parallelogram;perimeter=parallelogramPerimeter;whiteSpace=wrap;html=1;fixedSize=1;fillColor=#d5e8d4;strokeColor=#82b366;" parent="1" vertex="1">
          <mxGeometry x="-145" y="1570" width="120" height="60" as="geometry" />
        </mxCell>
        <mxCell id="wTtVLi6gAMGHEbQHU_Zb-49" value="" style="curved=1;endArrow=classic;html=1;rounded=0;exitX=0.5;exitY=1;exitDx=0;exitDy=0;exitPerimeter=0;entryX=1;entryY=0.5;entryDx=0;entryDy=0;" parent="1" source="wTtVLi6gAMGHEbQHU_Zb-29" target="wTtVLi6gAMGHEbQHU_Zb-47" edge="1">
          <mxGeometry width="50" height="50" relative="1" as="geometry">
            <mxPoint x="90" y="1600" as="sourcePoint" />
            <mxPoint x="140" y="1550" as="targetPoint" />
            <Array as="points">
              <mxPoint x="140" y="1600" />
              <mxPoint x="50" y="1600" />
            </Array>
          </mxGeometry>
        </mxCell>
        <mxCell id="wTtVLi6gAMGHEbQHU_Zb-59" style="edgeStyle=orthogonalEdgeStyle;rounded=0;orthogonalLoop=1;jettySize=auto;html=1;" parent="1" source="wTtVLi6gAMGHEbQHU_Zb-50" target="wTtVLi6gAMGHEbQHU_Zb-58" edge="1">
          <mxGeometry relative="1" as="geometry" />
        </mxCell>
        <mxCell id="wTtVLi6gAMGHEbQHU_Zb-50" value="&lt;div&gt;Play Song (Single)&lt;/div&gt;&lt;div&gt;Function&lt;br&gt;&lt;/div&gt;" style="text;html=1;strokeColor=#6c8ebf;fillColor=#dae8fc;align=center;verticalAlign=middle;whiteSpace=wrap;rounded=0;fontSize=16;" parent="1" vertex="1">
          <mxGeometry x="520" y="770" width="150" height="50" as="geometry" />
        </mxCell>
        <mxCell id="wTtVLi6gAMGHEbQHU_Zb-67" style="edgeStyle=orthogonalEdgeStyle;rounded=0;orthogonalLoop=1;jettySize=auto;html=1;entryX=0;entryY=0.5;entryDx=0;entryDy=0;" parent="1" source="wTtVLi6gAMGHEbQHU_Zb-52" target="wTtVLi6gAMGHEbQHU_Zb-66" edge="1">
          <mxGeometry relative="1" as="geometry">
            <mxPoint x="940" y="955.415" as="targetPoint" />
          </mxGeometry>
        </mxCell>
        <mxCell id="wTtVLi6gAMGHEbQHU_Zb-52" value="Save info(name, artist, image location, song location) to data base" style="shape=cylinder3;whiteSpace=wrap;html=1;boundedLbl=1;backgroundOutline=1;size=15;fontSize=16;fillColor=#fff2cc;strokeColor=#d6b656;" parent="1" vertex="1">
          <mxGeometry x="770" y="890.77" width="130" height="129.29" as="geometry" />
        </mxCell>
        <mxCell id="wTtVLi6gAMGHEbQHU_Zb-53" value="Records Database" style="text;html=1;strokeColor=none;fillColor=none;align=center;verticalAlign=middle;whiteSpace=wrap;rounded=0;fontSize=16;" parent="1" vertex="1">
          <mxGeometry x="805" y="850.77" width="60" height="30" as="geometry" />
        </mxCell>
        <mxCell id="wTtVLi6gAMGHEbQHU_Zb-71" style="edgeStyle=orthogonalEdgeStyle;rounded=0;orthogonalLoop=1;jettySize=auto;html=1;entryX=1;entryY=0.5;entryDx=0;entryDy=0;exitX=0.5;exitY=1;exitDx=0;exitDy=0;exitPerimeter=0;" parent="1" target="wTtVLi6gAMGHEbQHU_Zb-70" edge="1" source="wTtVLi6gAMGHEbQHU_Zb-55">
          <mxGeometry relative="1" as="geometry">
            <mxPoint x="1195" y="839.2299999999998" as="sourcePoint" />
            <mxPoint x="710" y="1150" as="targetPoint" />
            <Array as="points">
              <mxPoint x="1195" y="1019" />
              <mxPoint x="1195" y="1160" />
            </Array>
          </mxGeometry>
        </mxCell>
        <mxCell id="wTtVLi6gAMGHEbQHU_Zb-55" value="Save song and image to a folder in folder of files" style="shape=cylinder3;whiteSpace=wrap;html=1;boundedLbl=1;backgroundOutline=1;size=15;fontSize=16;fillColor=#fff2cc;strokeColor=#d6b656;" parent="1" vertex="1">
          <mxGeometry x="1120" y="890" width="120" height="129.23" as="geometry" />
        </mxCell>
        <mxCell id="wTtVLi6gAMGHEbQHU_Zb-56" value="&lt;div&gt;Files&lt;/div&gt;&lt;div&gt;Folder&lt;br&gt;&lt;/div&gt;" style="text;html=1;strokeColor=none;fillColor=none;align=center;verticalAlign=middle;whiteSpace=wrap;rounded=0;fontSize=16;" parent="1" vertex="1">
          <mxGeometry x="1145" y="850" width="60" height="30" as="geometry" />
        </mxCell>
        <mxCell id="wTtVLi6gAMGHEbQHU_Zb-62" style="edgeStyle=orthogonalEdgeStyle;rounded=0;orthogonalLoop=1;jettySize=auto;html=1;entryX=0.5;entryY=0;entryDx=0;entryDy=0;" parent="1" source="wTtVLi6gAMGHEbQHU_Zb-58" target="wTtVLi6gAMGHEbQHU_Zb-61" edge="1">
          <mxGeometry relative="1" as="geometry" />
        </mxCell>
        <mxCell id="wTtVLi6gAMGHEbQHU_Zb-58" value="&lt;div&gt;User Selects song&lt;/div&gt;&lt;div&gt;&amp;nbsp;to be played&lt;/div&gt;" style="shape=parallelogram;perimeter=parallelogramPerimeter;whiteSpace=wrap;html=1;fixedSize=1;fillColor=#d5e8d4;strokeColor=#82b366;" parent="1" vertex="1">
          <mxGeometry x="515.63" y="900" width="158.75" height="60" as="geometry" />
        </mxCell>
        <mxCell id="wTtVLi6gAMGHEbQHU_Zb-63" style="edgeStyle=orthogonalEdgeStyle;rounded=0;orthogonalLoop=1;jettySize=auto;html=1;entryX=0.5;entryY=1;entryDx=0;entryDy=0;entryPerimeter=0;" parent="1" source="wTtVLi6gAMGHEbQHU_Zb-61" target="wTtVLi6gAMGHEbQHU_Zb-52" edge="1">
          <mxGeometry relative="1" as="geometry" />
        </mxCell>
        <mxCell id="wTtVLi6gAMGHEbQHU_Zb-61" value="&lt;div&gt;Ask records&amp;nbsp;&lt;/div&gt;&lt;div&gt;database&lt;/div&gt;" style="rounded=0;whiteSpace=wrap;html=1;fillColor=#f8cecc;strokeColor=#b85450;" parent="1" vertex="1">
          <mxGeometry x="535" y="1010" width="120" height="60" as="geometry" />
        </mxCell>
        <mxCell id="wTtVLi6gAMGHEbQHU_Zb-68" style="edgeStyle=orthogonalEdgeStyle;rounded=0;orthogonalLoop=1;jettySize=auto;html=1;entryX=0;entryY=0.5;entryDx=0;entryDy=0;entryPerimeter=0;" parent="1" source="wTtVLi6gAMGHEbQHU_Zb-66" target="wTtVLi6gAMGHEbQHU_Zb-55" edge="1">
          <mxGeometry relative="1" as="geometry" />
        </mxCell>
        <mxCell id="rDYrTtggcFu_421azMsE-2" style="edgeStyle=none;curved=1;rounded=0;orthogonalLoop=1;jettySize=auto;html=1;fontSize=12;startSize=8;endSize=8;" edge="1" parent="1" source="wTtVLi6gAMGHEbQHU_Zb-66">
          <mxGeometry relative="1" as="geometry">
            <mxPoint x="1000" y="1050" as="targetPoint" />
          </mxGeometry>
        </mxCell>
        <mxCell id="rDYrTtggcFu_421azMsE-3" value="&lt;font style=&quot;font-size: 12px;&quot;&gt;If song not found&lt;/font&gt;" style="edgeLabel;html=1;align=center;verticalAlign=middle;resizable=0;points=[];fontSize=16;" vertex="1" connectable="0" parent="rDYrTtggcFu_421azMsE-2">
          <mxGeometry x="-0.2097" y="-1" relative="1" as="geometry">
            <mxPoint as="offset" />
          </mxGeometry>
        </mxCell>
        <mxCell id="wTtVLi6gAMGHEbQHU_Zb-66" value="Request for file" style="rounded=0;whiteSpace=wrap;html=1;fillColor=#f8cecc;strokeColor=#b85450;" parent="1" vertex="1">
          <mxGeometry x="950" y="904.62" width="100" height="100" as="geometry" />
        </mxCell>
        <mxCell id="rDYrTtggcFu_421azMsE-8" style="edgeStyle=none;curved=1;rounded=0;orthogonalLoop=1;jettySize=auto;html=1;entryX=0.5;entryY=0;entryDx=0;entryDy=0;fontSize=12;startSize=8;endSize=8;" edge="1" parent="1" source="wTtVLi6gAMGHEbQHU_Zb-70" target="rDYrTtggcFu_421azMsE-7">
          <mxGeometry relative="1" as="geometry" />
        </mxCell>
        <mxCell id="rDYrTtggcFu_421azMsE-11" style="edgeStyle=none;curved=1;rounded=0;orthogonalLoop=1;jettySize=auto;html=1;entryX=0.5;entryY=0;entryDx=0;entryDy=0;fontSize=12;startSize=8;endSize=8;" edge="1" parent="1" source="wTtVLi6gAMGHEbQHU_Zb-70" target="rDYrTtggcFu_421azMsE-9">
          <mxGeometry relative="1" as="geometry" />
        </mxCell>
        <mxCell id="rDYrTtggcFu_421azMsE-14" style="edgeStyle=none;curved=1;rounded=0;orthogonalLoop=1;jettySize=auto;html=1;fontSize=12;startSize=8;endSize=8;" edge="1" parent="1" source="wTtVLi6gAMGHEbQHU_Zb-70" target="rDYrTtggcFu_421azMsE-13">
          <mxGeometry relative="1" as="geometry" />
        </mxCell>
        <mxCell id="rDYrTtggcFu_421azMsE-21" style="edgeStyle=none;curved=1;rounded=0;orthogonalLoop=1;jettySize=auto;html=1;fontSize=12;startSize=8;endSize=8;" edge="1" parent="1" source="wTtVLi6gAMGHEbQHU_Zb-70" target="rDYrTtggcFu_421azMsE-20">
          <mxGeometry relative="1" as="geometry" />
        </mxCell>
        <mxCell id="wTtVLi6gAMGHEbQHU_Zb-70" value="&lt;div&gt;Start playing the song&lt;/div&gt;(Audio Library?)" style="rounded=0;whiteSpace=wrap;html=1;fillColor=#f8cecc;strokeColor=#b85450;" parent="1" vertex="1">
          <mxGeometry x="535" y="1130" width="305" height="50" as="geometry" />
        </mxCell>
        <mxCell id="rDYrTtggcFu_421azMsE-4" value="&lt;div style=&quot;font-size: 12px;&quot;&gt;&lt;font style=&quot;font-size: 12px;&quot;&gt;Return an &lt;br&gt;&lt;/font&gt;&lt;/div&gt;&lt;div style=&quot;font-size: 12px;&quot;&gt;&lt;font style=&quot;font-size: 12px;&quot;&gt;error&lt;font style=&quot;font-size: 12px;&quot;&gt;&lt;br&gt;&lt;/font&gt;&lt;/font&gt;&lt;/div&gt;" style="shape=parallelogram;perimeter=parallelogramPerimeter;whiteSpace=wrap;html=1;fixedSize=1;fontSize=16;fillColor=#d5e8d4;strokeColor=#82b366;" vertex="1" parent="1">
          <mxGeometry x="940" y="1050" width="120" height="60" as="geometry" />
        </mxCell>
        <mxCell id="rDYrTtggcFu_421azMsE-7" value="&lt;div&gt;Play and Pause&lt;/div&gt;&lt;div&gt;Function&lt;br&gt;&lt;/div&gt;" style="text;html=1;strokeColor=#6c8ebf;fillColor=#dae8fc;align=center;verticalAlign=middle;whiteSpace=wrap;rounded=0;fontSize=16;" vertex="1" parent="1">
          <mxGeometry x="450" y="1230" width="150" height="50" as="geometry" />
        </mxCell>
        <mxCell id="rDYrTtggcFu_421azMsE-9" value="&lt;div&gt;Skip &lt;br&gt;&lt;/div&gt;&lt;div&gt;Function&lt;/div&gt;&lt;div&gt;(Play random song)&lt;br&gt;&lt;/div&gt;" style="text;html=1;strokeColor=#6c8ebf;fillColor=#dae8fc;align=center;verticalAlign=middle;whiteSpace=wrap;rounded=0;fontSize=16;" vertex="1" parent="1">
          <mxGeometry x="210" y="1220" width="190" height="70" as="geometry" />
        </mxCell>
        <mxCell id="rDYrTtggcFu_421azMsE-13" value="&lt;div&gt;Progress Bar&lt;/div&gt;&lt;div&gt;Function&lt;br&gt;&lt;/div&gt;" style="text;html=1;strokeColor=#6c8ebf;fillColor=#dae8fc;align=center;verticalAlign=middle;whiteSpace=wrap;rounded=0;fontSize=16;" vertex="1" parent="1">
          <mxGeometry x="620" y="1225" width="140" height="60" as="geometry" />
        </mxCell>
        <mxCell id="rDYrTtggcFu_421azMsE-15" value="List of ids with song list for playlist" style="shape=cylinder3;whiteSpace=wrap;html=1;boundedLbl=1;backgroundOutline=1;size=15;fontSize=16;fillColor=#fff2cc;strokeColor=#d6b656;" vertex="1" parent="1">
          <mxGeometry x="1610" y="890.77" width="120" height="129.23" as="geometry" />
        </mxCell>
        <mxCell id="rDYrTtggcFu_421azMsE-16" value="&lt;div&gt;Playlist&lt;/div&gt;&lt;div&gt;Database&lt;br&gt;&lt;/div&gt;" style="text;html=1;strokeColor=none;fillColor=none;align=center;verticalAlign=middle;whiteSpace=wrap;rounded=0;fontSize=16;" vertex="1" parent="1">
          <mxGeometry x="1635" y="850.77" width="60" height="30" as="geometry" />
        </mxCell>
        <mxCell id="rDYrTtggcFu_421azMsE-19" value="Stores playlist as a list of numbers" style="text;html=1;strokeColor=none;fillColor=none;align=center;verticalAlign=middle;whiteSpace=wrap;rounded=0;fontSize=16;" vertex="1" parent="1">
          <mxGeometry x="1750" y="950" width="110" height="50" as="geometry" />
        </mxCell>
        <mxCell id="rDYrTtggcFu_421azMsE-20" value="&lt;div&gt;Loop song&lt;br&gt;&lt;/div&gt;&lt;div&gt;Function&lt;br&gt;&lt;/div&gt;" style="text;html=1;strokeColor=#6c8ebf;fillColor=#dae8fc;align=center;verticalAlign=middle;whiteSpace=wrap;rounded=0;fontSize=16;" vertex="1" parent="1">
          <mxGeometry x="800" y="1230" width="140" height="60" as="geometry" />
        </mxCell>
        <mxCell id="rDYrTtggcFu_421azMsE-22" value="Mr. White" style="shape=umlActor;verticalLabelPosition=bottom;verticalAlign=top;html=1;outlineConnect=0;fontSize=16;" vertex="1" parent="1">
          <mxGeometry x="-305" y="740" width="30" height="60" as="geometry" />
        </mxCell>
      </root>
    </mxGraphModel>
  </diagram>
</mxfile>
